<svg width="22" height="22" viewBox="0 0 22 22" fill="none" xmlns="http://www.w3.org/2000/svg">
<g clip-path="url(#clip0_2328_6950)">
<path d="M11 0C4.91566 0 0 4.91 0 11C0 17.09 4.91 22 11 22C17.09 22 22 17.09 22 11C22 4.91 17.0844 0 11 0ZM11 20.5292C5.72088 20.5292 1.47078 16.2791 1.47078 10.9999C1.47078 5.72081 5.72094 1.47071 11 1.47071C16.2791 1.47071 20.5292 5.72081 20.5292 10.9999C20.5292 16.2791 16.2791 20.5292 11 20.5292Z" fill="#406C9A"/>
<path d="M11.0002 5.42969C8.72976 5.42969 6.82275 7.33662 6.82275 9.67979C6.82275 10.1216 7.11353 10.4124 7.55535 10.4124C7.9971 10.4124 8.28794 10.1216 8.28794 9.67979C8.28794 8.14191 9.53498 6.89487 11.0002 6.89487C12.4653 6.89487 13.7124 8.14191 13.7124 9.60709C13.7124 11.145 12.538 12.3193 11.0002 12.3193C10.5584 12.3193 10.2676 12.6101 10.2676 13.0519V14.4444C10.2676 14.8862 10.5583 15.177 11.0002 15.177C11.3693 15.177 11.7328 14.8079 11.7328 14.4444V13.7119C13.7124 13.4212 15.1776 11.7322 15.1776 9.60722C15.1777 7.2584 13.349 5.42969 11.0002 5.42969Z" fill="#406C9A"/>
<path d="M11.5146 15.9105C11.2183 15.6197 10.782 15.6197 10.4857 15.9105C10.3403 16.0559 10.2676 16.2012 10.2676 16.425C10.2676 16.6431 10.3403 16.794 10.4857 16.9395C10.631 17.0849 10.7764 17.1576 11.0002 17.1576C11.2239 17.1576 11.3693 17.0849 11.5147 16.9395C11.6601 16.7941 11.7328 16.6487 11.7328 16.425C11.7327 16.2068 11.66 16.0559 11.5146 15.9105Z" fill="#406C9A"/>
</g>
<defs>
<clipPath id="clip0_2328_6950">
<rect width="22" height="22" fill="white"/>
</clipPath>
</defs>
</svg>
