<svg width="13" height="13" viewBox="0 0 13 13" fill="none" xmlns="http://www.w3.org/2000/svg">
<path fill-rule="evenodd" clip-rule="evenodd" d="M0.679725 0.0254353C0.415139 0.0773459 0.184681 0.257484 0.0698849 0.502053C0.0145212 0.619995 0.00246686 0.682089 0.00246686 0.849377C0.002416 1.24236 -0.169753 1.04722 2.7352 3.94705L5.30462 6.51195L2.71455 9.10256C0.609713 11.2079 0.113321 11.717 0.0649259 11.8202C-0.0200143 12.0013 -0.0218962 12.3256 0.0609586 12.5059C0.134989 12.6669 0.296833 12.8343 0.460203 12.9187C0.644426 13.0139 0.937012 13.0271 1.14684 12.9498C1.29432 12.8955 1.38641 12.8069 3.89982 10.3001L6.50024 7.70663L9.08778 10.2869C11.1661 12.3593 11.7004 12.8791 11.8025 12.9278C11.9092 12.9787 11.9685 12.9884 12.1713 12.988C12.3829 12.9877 12.4288 12.9793 12.541 12.9205C12.6968 12.8388 12.8687 12.6579 12.9427 12.4976C13.022 12.3261 13.0184 11.9975 12.9353 11.8202C12.8869 11.717 12.3905 11.2079 10.2857 9.10256L7.6956 6.51195L10.265 3.94705C13.17 1.04722 12.9978 1.24236 12.9978 0.849377C12.9978 0.683004 12.9856 0.620071 12.9318 0.505989C12.7259 0.0699047 12.2094 -0.109852 11.7779 0.104368C11.7107 0.137714 10.7832 1.04534 9.08773 2.73677L6.50011 5.31831L3.91249 2.73677C2.21704 1.04534 1.28951 0.137714 1.22232 0.104368C1.13627 0.0616508 0.853598 -0.00851998 0.805202 0.000851357C0.797293 0.00237515 0.74081 0.0134227 0.679725 0.0254353Z" fill="white"/>
</svg>
